<?xml version="1.0" standalone="no"?>
<!DOCTYPE svg PUBLIC "-//W3C//DTD SVG 20010904//EN"
 "http://www.w3.org/TR/2001/REC-SVG-20010904/DTD/svg10.dtd">
<svg version="1.0" xmlns="http://www.w3.org/2000/svg"
 width="100.000000pt" height="100.000000pt" viewBox="0 0 100.000000 100.000000"
 preserveAspectRatio="xMidYMid meet">

<g transform="translate(0.000000,100.000000) scale(0.100000,-0.100000)"
fill="#000000" stroke="none">
<path d="M0 500 l0 -500 500 0 500 0 0 500 0 500 -500 0 -500 0 0 -500z m619
475 c128 -30 258 -133 314 -248 46 -96 62 -188 49 -282 -36 -248 -237 -425
-482 -425 -246 0 -445 176 -482 425 -21 146 29 291 137 400 127 127 287 171
464 130z"/>
<path d="M300 700 l0 -60 -35 0 c-19 0 -35 -4 -35 -10 0 -5 16 -10 35 -10 l35
0 0 -152 c0 -176 3 -192 36 -207 31 -14 74 -14 74 -1 0 6 -11 10 -25 10 -14 0
-34 9 -44 19 -18 18 -19 33 -18 173 l2 153 78 3 77 3 0 -166 c0 -153 1 -166
21 -186 22 -22 79 -24 87 -2 2 9 -5 11 -26 7 -25 -5 -33 -2 -46 19 -14 20 -16
50 -14 173 l3 149 75 0 75 0 5 -168 c5 -152 7 -170 24 -183 22 -16 72 -19 80
-5 3 5 -12 11 -34 15 -50 8 -52 13 -48 196 l3 145 43 3 c56 4 54 22 -3 22
l-45 0 0 60 c0 33 -4 60 -10 60 -6 0 -10 -27 -10 -60 l0 -60 -80 0 -80 0 0 60
c0 33 -4 60 -10 60 -6 0 -10 -27 -10 -60 l0 -60 -78 0 -78 0 -1 28 c-2 80 -4
92 -13 92 -6 0 -10 -27 -10 -60z"/>
</g>
</svg>
